PathFileType	4	(X/Y/Z)	E:\Studenten\Marcel_BSc\Ayumi_25_09_2024\25-09-2024\sumo_dl_80kg01.trc
DataRate	CameraRate	NumFrames	NumMarkers	Units	OrigDataRate	OrigDataStartFrame	OrigNumFrames
200.0	200.0	7	52	mm	200.0	1739	2782	
Frame#	Time	RSACR			LSACR			USACR			LBAR			RBAR			RHEE			RMT1			RMT5			RMT2			LHEE			LMT1			LMT5			LMT2			LMMAL			LLMAL			LTIB4			LTIB2			LTIB3			LTIB1			RMMAL			RLMAL			RTIB1			RTIB2			RTIB3			RTHI1			RTHI4			RTHI3			RTHI2			LTHI1			LTHI4			LTHI3			LTHI2			FHD			LBHD			RBHD			C7			T10			CLAV			LSHO			RSHO			LRAD			LUL			LRFIN			RRAD			RUL			RUFIN			LDUPA			LMUPA			LUUPA			RDUPA			RUUPA			RMUPA			
		X1	Y1	Z1	X2	Y2	Z2	X3	Y3	Z3	X4	Y4	Z4	X5	Y5	Z5	X6	Y6	Z6	X7	Y7	Z7	X8	Y8	Z8	X9	Y9	Z9	X10	Y10	Z10	X11	Y11	Z11	X12	Y12	Z12	X13	Y13	Z13	X14	Y14	Z14	X15	Y15	Z15	X16	Y16	Z16	X17	Y17	Z17	X18	Y18	Z18	X19	Y19	Z19	X20	Y20	Z20	X21	Y21	Z21	X22	Y22	Z22	X23	Y23	Z23	X24	Y24	Z24	X25	Y25	Z25	X26	Y26	Z26	X27	Y27	Z27	X28	Y28	Z28	X29	Y29	Z29	X30	Y30	Z30	X31	Y31	Z31	X32	Y32	Z32	X33	Y33	Z33	X34	Y34	Z34	X35	Y35	Z35	X36	Y36	Z36	X37	Y37	Z37	X38	Y38	Z38	X39	Y39	Z39	X40	Y40	Z40	X41	Y41	Z41	X42	Y42	Z42	X43	Y43	Z43	X44	Y44	Z44	X45	Y45	Z45	X46	Y46	Z46	X47	Y47	Z47	X48	Y48	Z48	X49	Y49	Z49	X50	Y50	Z50	X51	Y51	Z51	X52	Y52	Z52	
1739	8.69	341.36264	832.28424	-967.90344	344.24045	833.55444	-909.83649	335.77573	849.4895	-938.54102	194.92607	603.15936	189.40921	110.01511	625.79364	-2029.8047	271.63348	28.516842	-1357.681	119.4225	44.060997	-1485.6173	190.13928	30.224205	-1526.5669	151.19746	41.975666	-1511.2802	305.66846	38.596672	-492.38055	145.72223	49.668388	-381.57367				173.00758	46.143055	-353.21719	244.45117	64.48085	-503.42529	291.90762	74.197533	-439.16684	310.47229	200.37488	-511.91544	296.9556	263.16678	-523.30237	333.78708	245.48251	-553.7746	328.76169	288.51294	-566.4071	221.13062	57.207096	-1357.3838	268.07434	70.643806	-1411.2458	274.70706	305.2811	-1319.2358	314.12674	282.16125	-1296.775	282.56879	242.69604	-1338.8049	278.12009	724.79321	-1109.7885	237.9935	599.11639	-1189.097	280.72552	582.50348	-1167.8047	269.14426	646.53308	-1155.4462	293.21826	722.06299	-766.06805	294.77264	595.61981	-700.57343	252.68793	604.62952	-671.78882	272.35648	657.53546	-705.0824	209.85225	1488.2153	-842.59412	322.31958	1481.0643	-853.07928	333.69958	1469.1503	-977.05701	348.11563	1264.8993	-921.40985	330.55316	892.49731	-933.54651	209.58981	1232.2253	-926.87024	306.58502	1223.3894	-748.13763	266.50531	1232.2457	-1086.8307	146.94559	707.22882	-704.19946	148.12561	706.61835	-663.13062	119.25455	624.53552	-719.56268	133.45415	707.99408	-1147.1259	129.47375	706.48297	-1195.484	101.34486	629.96344	-1133.2015	209.59857	1013.9748	-718.44128	230.60185	985.93762	-683.39667	241.05081	1062.9905	-699.13519	175.20602	985.53369	-1110.7704	202.34232	1054.1658	-1140.3651	195.14502	994.03906	-1155.6475
1740	8.695	341.30194	832.27368	-968.03632	344.18265	833.52863	-909.98395	335.71503	849.46222	-938.66486	195.00375	603.08472	189.50008	110.21896	625.70319	-2029.4907	271.63898	28.519003	-1357.6876	119.4264	44.059097	-1485.6266	190.14772	30.226864	-1526.5819	151.20456	41.97905	-1511.2963	305.6629	38.573013	-492.69693	145.72194	49.670727	-381.57437				173.00256	46.147533	-353.22464	244.7061	64.393738	-503.33243	291.86691	74.220207	-439.19974	310.43005	200.35457	-512.00708	297.01529	263.13849	-523.36798	333.68091	245.4586	-553.99323	328.75867	288.45187	-566.53632	221.13881	57.218384	-1357.3965	268.07535	70.63903	-1411.2617	274.70511	305.30814	-1319.2941	314.13388	282.18063	-1296.8455	282.54102	242.75865	-1338.859	278.03091	724.87079	-1109.9025	237.86285	599.16003	-1189.2379	280.61157	582.59344	-1168.0243	269.05411	646.58405	-1155.6108	293.21942	721.96625	-766.19342	294.83478	595.54559	-700.71185	252.78754	604.57037	-671.87909	272.4202	657.39313	-705.36456	209.74983	1488.1614	-842.49457	322.20023	1481.0338	-853.04602	333.5076	1469.1699	-977.01947	347.98364	1264.9061	-921.39771	330.50427	892.4801	-933.62158	209.46825	1232.2104	-926.87708	306.42004	1223.3962	-748.14233	266.43829	1232.2579	-1086.8383	146.98196	707.17761	-704.11676	148.16417	706.58124	-663.03644	119.32912	624.48322	-719.47626	133.53133	707.96851	-1147.0559	129.55553	706.43988	-1195.4227	101.40245	629.9505	-1133.1151	209.51093	1013.9421	-718.42566	230.52731	985.93384	-683.36615	240.95119	1062.9905	-699.12726	175.22346	985.50897	-1110.7523	202.32076	1054.1683	-1140.3717	195.13081	994.0271	-1155.6332
1741	8.7	341.26617	832.28461	-968.16089	344.16571	833.49811	-910.099	335.66635	849.44659	-938.77795	195.08812	603.01788	189.61586	110.36091	625.82959	-2029.6151	271.63129	28.523151	-1357.6909	119.42885	44.068699	-1485.6354	190.14526	30.212494	-1526.5995	151.21295	41.973278	-1511.3129	305.66113	38.581608	-492.69073	145.72491	49.680252	-381.5907				173.00742	46.14259	-353.22018	244.6722	64.388885	-503.36426	291.87378	74.150177	-439.49408	310.42746	200.32327	-512.1239	297.00363	263.08084	-523.46185	333.75171	245.39604	-553.9967	328.75153	288.41101	-566.65277	221.13297	57.222076	-1357.4137	268.08328	70.641609	-1411.2714	274.73639	305.32785	-1319.3169	314.16052	282.19894	-1296.8756	282.59454	242.74095	-1338.8867	278.02722	725.09131	-1110.199	237.74709	599.16937	-1189.3762	280.53412	582.63165	-1168.1884	268.95712	646.51733	-1155.8184	293.24844	721.90051	-766.28717	294.88727	595.45282	-700.90399	252.92006	604.48248	-671.95764	272.49033	657.29559	-705.50562	209.64052	1488.1227	-842.37396	322.09155	1480.9999	-853.00244	333.32254	1469.1976	-977.00128	347.84824	1264.9218	-921.39166	330.48035	892.48212	-933.67358	209.33473	1232.1956	-926.88977	306.27383	1223.4083	-748.13208	266.35242	1232.2704	-1086.8398	147.0155	707.12415	-704.03107	148.20503	706.52765	-662.9527	119.39124	624.41833	-719.37384	133.60429	707.93347	-1146.9799	129.63243	706.401	-1195.3552	101.49416	629.90802	-1133.0234	209.37704	1013.9293	-718.44513	230.43381	985.94397	-683.31683	240.82646	1062.9763	-699.10583	175.21834	985.50635	-1110.7292	202.28499	1054.1553	-1140.3602	195.10294	994.02063	-1155.6085
1742	8.705	341.24402	832.2934	-968.27216	344.17377	833.47656	-910.2002	335.64114	849.44238	-938.89746	195.15457	602.94366	189.71228	110.5404	625.83264	-2029.4865	271.63843	28.524172	-1357.7124	119.42558	44.074673	-1485.6545	190.15923	30.212957	-1526.6185	151.21661	41.97076	-1511.3341	305.64581	38.573921	-492.70682	145.72899	49.684074	-381.59811				173.01141	46.130497	-353.21866	244.64447	64.386772	-503.37982	291.84647	74.147774	-439.52835	310.44647	200.29942	-512.15881	296.99005	263.08347	-523.56628	333.76031	245.35661	-554.09882	328.7587	288.36761	-566.73743	221.14046	57.232361	-1357.4102	268.09824	70.62841	-1411.2906	274.76346	305.3172	-1319.3391	314.20291	282.18231	-1296.9042	282.62589	242.74089	-1338.9117	277.99817	725.1214	-1110.283	237.68202	599.17621	-1189.4928	280.50296	582.66583	-1168.3422	268.89828	646.51807	-1155.9327	293.27328	721.80786	-766.37842	294.94623	595.36151	-701.05688	253.05804	604.39954	-672.05927	272.60999	657.22949	-705.63007	209.5452	1488.0956	-842.30469	321.97372	1480.9808	-852.96783	333.14594	1469.2068	-976.97577	347.70129	1264.9495	-921.36035	330.47284	892.48389	-933.73865	209.19034	1232.1906	-926.90869	306.08112	1223.4167	-748.11707	266.24484	1232.3019	-1086.844	147.03233	707.0824	-703.94916	148.23143	706.48962	-662.87042	119.4669	624.36719	-719.28809	133.70029	707.9165	-1146.915	129.72296	706.36194	-1195.2784	101.59209	629.87421	-1132.9291	209.27109	1013.9034	-718.42999	230.29881	985.93658	-683.29242	240.69409	1062.9879	-699.06696	175.23206	985.46906	-1110.7023	202.22404	1054.1547	-1140.3403	195.07381	994.00525	-1155.5773
1743	8.71	341.25684	832.30597	-968.37122	344.18033	833.47723	-910.2915	335.66135	849.44824	-938.97687	195.22868	602.86786	189.8266	110.71531	625.84906	-2029.3824	271.63318	28.523577	-1357.7308	119.43149	44.073059	-1485.6782	190.16664	30.217993	-1526.6332	151.21571	41.968903	-1511.3535	305.64581	38.577667	-492.70847	145.72607	49.681221	-381.59671				173.01746	46.125816	-353.21625	244.3844	64.422691	-503.59149	291.87344	74.137253	-439.52655	310.45389	200.30211	-512.20795	297.02292	263.04114	-523.60864	333.67169	245.34875	-554.23285	328.76389	288.33041	-566.82361	221.13564	57.233219	-1357.4346	268.10519	70.635002	-1411.3115	274.8175	305.30051	-1319.329	314.25833	282.16367	-1296.9053	282.69193	242.74141	-1338.9285	277.98166	725.15546	-1110.3333	237.68651	599.18628	-1189.5647	280.51392	582.67291	-1168.4248	268.86157	646.58441	-1156.1116	293.34546	721.7428	-766.45081	295.0415	595.31744	-701.18121	253.18971	604.33484	-672.1535	272.70419	657.151	-705.73761	209.44431	1488.1019	-842.22815	321.84662	1480.9451	-852.9267	332.9711	1469.2142	-976.93927	347.53134	1264.9827	-921.34521	330.49994	892.49347	-933.77478	209.05211	1232.1726	-926.91803	305.89276	1223.4421	-748.09912	266.12671	1232.3322	-1086.8474	147.05009	707.02795	-703.85297	148.25436	706.45312	-662.78571	119.53419	624.31812	-719.1875	133.77898	707.8775	-1146.8259	129.8062	706.3161	-1195.1899	101.68391	629.84674	-1132.8269	209.14975	1013.8832	-718.39014	230.18796	985.93652	-683.26471	240.54485	1063.0076	-699.04797	174.7821	985.66656	-1110.868	202.14435	1054.1471	-1140.317	195.09839	993.97577	-1155.5104
1744	8.715	341.29382	832.32812	-968.44104	344.22766	833.49304	-910.37903	335.69681	849.45459	-939.03699	195.29306	602.7948	189.9379	110.86906	625.8537	-2029.2926	271.64166	28.527954	-1357.7289	119.43651	44.074249	-1485.693	190.18727	30.216066	-1526.6627	151.21951	41.960201	-1511.369	305.64368	38.571041	-492.73605	145.73154	49.684151	-381.59897				173.0199	46.128723	-353.21844	244.90988	64.212112	-503.06702	291.8519	74.146385	-439.54706	310.48093	200.26927	-512.22699	296.5527	263.2337	-523.98846	333.69931	245.34097	-554.25616	328.78763	288.31097	-566.85242	221.13889	57.233032	-1357.4321	268.12015	70.619476	-1411.3158	274.91376	305.27139	-1319.3252	314.32043	282.12845	-1296.8967	282.75711	242.70122	-1338.9288	278.01547	725.16791	-1110.3822	237.71971	599.18134	-1189.6121	280.56503	582.67749	-1168.5045	268.96542	646.52991	-1156.0652	293.40674	721.70453	-766.52344	295.09933	595.27435	-701.32672	253.32597	604.29175	-672.22681	272.76807	657.13019	-705.83984	209.28886	1488.186	-841.71399	321.69632	1480.9216	-852.88647	332.78525	1469.2145	-976.90674	347.35712	1265.0232	-921.33362	330.54651	892.50598	-933.80109	208.97554	1232.0963	-926.9444	305.68262	1223.486	-748.07159	265.97473	1232.3618	-1086.8387	147.07256	706.99969	-703.77197	148.27599	706.42963	-662.70581	119.59678	624.27856	-719.09723	133.86476	707.84503	-1146.7484	129.8782	706.28589	-1195.1172	101.77692	629.82678	-1132.7264	208.82314	1013.9145	-718.2655	230.05309	985.95215	-683.23926	240.38466	1063.0007	-699.05322	174.77861	985.66266	-1110.792	202.03909	1054.1519	-1140.2886	195.03119	993.98169	-1155.491
1745	8.72	341.35645	832.34949	-968.48016	344.27661	833.51611	-910.43396	335.75385	849.48163	-939.08032	195.33917	602.71362	190.04729	111.01312	625.86096	-2029.1946	271.63379	28.539465	-1357.7255	119.45652	44.06517	-1485.7141	190.1832	30.20612	-1526.6582	151.22636	41.956551	-1511.3817	305.62985	38.565914	-492.75854	145.72723	49.679836	-381.59262				173.01692	46.134106	-353.22424	244.65924	64.351837	-503.37808	291.84906	74.14711	-439.53528	310.48685	200.26894	-512.23907	296.56641	263.22214	-523.99017	333.7121	245.31615	-554.24994	328.81497	288.30878	-566.86053	221.13673	57.231056	-1357.4434	268.1268	70.625198	-1411.3367	275.00351	305.22403	-1319.3031	314.4151	282.0723	-1296.8552	282.86206	242.69769	-1338.9301	278.00305	725.07422	-1110.1968	237.8148	599.19965	-1189.6067	280.6662	582.68213	-1168.4894	269.07419	646.56311	-1156.0985	293.45834	721.66302	-766.58008	295.23145	595.23132	-701.38477	253.45221	604.25836	-672.26782	272.85922	657.09601	-705.90131	209.1355	1488.1908	-841.67725	321.52933	1480.8981	-852.84271	332.60663	1469.2079	-976.85779	347.20367	1265.0728	-921.2901	330.58722	892.53925	-933.82922	208.7935	1232.0859	-926.96051	305.4563	1223.5425	-748.03699	265.81384	1232.4044	-1086.8221	147.37146	706.91486	-703.65594	148.29692	706.4151	-662.62469	119.6776	624.23322	-719.00806	133.92163	707.83551	-1146.6643	129.96642	706.24707	-1195.021	101.85586	629.80615	-1132.6228	208.86327	1013.8804	-718.40845	229.92351	985.9649	-683.23846	240.20334	1063.0165	-699.01337	174.73727	985.6402	-1110.7596	201.92699	1054.1646	-1140.2538	194.97061	993.98346	-1155.4384
